<?xml version="1.0" encoding="UTF-8"?>
<svg id="Layer_2" data-name="Layer 2" xmlns="http://www.w3.org/2000/svg" viewBox="0 0 336.34 71.08">
  <defs>
    <style>
      .cls-1 {
        fill: #3ab7e6;
      }

      .cls-2 {
        fill: #231f20;
      }

      .cls-3 {
        fill: #414241;
      }

      .cls-4 {
        fill: #282828;
      }

      .cls-5 {
        fill: #414140;
      }

      .cls-6 {
        fill: #292928;
      }

      .cls-7 {
        fill: #292828;
      }

      .cls-8 {
        fill: #feffff;
      }

      .cls-9 {
        fill: #00aeef;
      }
    </style>
  </defs>
  <g id="Layer_3" data-name="Layer 3">
    <g>
      <path class="cls-9" d="M102.05,61.17l-2.09-6.98h-17.35l-2.09,6.98h-16.27l18.07-49.54h18.5l18.07,49.54h-16.85ZM85.92,43.1h10.73l-5.18-17.64h-.29l-5.26,17.64Z"/>
      <path class="cls-9" d="M124.37,18.69v-9.72h14.33v9.72h-14.33ZM124.37,61.17V23.16h14.33v38.02h-14.33Z"/>
      <path class="cls-2" d="M162.31,61.17l-17.57-49.54h16.99l9.94,33.12h.29l10.01-33.12h16.27l-17.5,49.54h-18.43Z"/>
      <path class="cls-2" d="M249.43,35.04c-1.63,2.45-4.01,4.25-7.13,5.4l11.02,20.74h-17.86l-8.78-18.07h-5.9v18.07h-15.91V11.64h30.31c3.55,0,6.59.68,9.11,2.05,2.52,1.37,4.42,3.22,5.69,5.54,1.27,2.33,1.91,4.86,1.91,7.6,0,3.02-.82,5.76-2.45,8.21ZM234.39,24.24c-.86-.86-1.92-1.3-3.17-1.3h-10.44v9.14h10.44c1.25,0,2.3-.44,3.17-1.33.86-.89,1.3-1.98,1.3-3.28s-.43-2.38-1.3-3.24Z"/>
      <path class="cls-2" d="M261.6,61.17V11.64h15.91v49.54h-15.91Z"/>
      <path class="cls-2" d="M329.93,16.28c4.27,3.67,6.41,8.92,6.41,15.73h-15.19c0-2.88-.76-5.16-2.27-6.84-1.51-1.68-3.66-2.52-6.44-2.52-3.22,0-5.58,1.01-7.09,3.02-1.51,2.02-2.27,4.82-2.27,8.42v4.61c0,3.55.76,6.35,2.27,8.39,1.51,2.04,3.83,3.06,6.95,3.06s5.4-.79,6.98-2.38,2.38-3.82,2.38-6.7h14.69c0,6.77-2.08,11.95-6.23,15.55-4.15,3.6-10.02,5.4-17.6,5.4-8.45,0-14.84-2.16-19.19-6.48-4.34-4.32-6.52-10.7-6.52-19.15s2.17-14.83,6.52-19.15c4.34-4.32,10.74-6.48,19.19-6.48,7.34,0,13.15,1.84,17.42,5.51Z"/>
    </g>
    <g>
      <path class="cls-6" d="M47.43,59.62c-4.75,4.93-11.52,8.84-17.95,11.2-.61.22-.75.37-1.44.17-1.59-.46-4.04-1.65-5.59-2.38C11.1,63.23,1.07,52.99,0,39.91L.02,11.04l.17-.21C9.56,7.06,19.1,3.63,28.54,0c8.23,3.15,16.49,6.21,24.71,9.37,1.2.46,2.41.93,3.58,1.46l.1.2c.18,9.47.02,18.96.08,28.43-.47,7.76-4.3,14.67-9.59,20.16Z"/>
      <path class="cls-8" d="M44.35,56.53c-4.4,4.61-9.85,7.65-15.73,10.03-11.83-4.43-23.41-14.1-24.26-27.56l.04-25.24L28.56,4.61l23.98,9.16.04,25.54c-.33,6.62-3.76,12.55-8.23,17.23Z"/>
      <path class="cls-1" d="M42.93,22.61c-4.24,4.29-8.55,8.53-12.84,12.77l-.62.02c-1.83-1.59-3.47-3.41-5.16-5.14l-.19-.11c-.22,0-1.24,1.24-1.46,1.47-2.99,3.07-6.09,6.05-9.12,9.08-.21.11-.44.02-.62-.09l-2.48-2.56c-.3-.69.94-1.46,1.35-1.88,3.95-4.01,7.96-7.99,11.99-11.93.3-.11.54.02.77.19l5.06,5.04c.12.1.27.1.38,0l11.28-11.29v-.15s-2.18-2.26-2.18-2.26c-.16-.5.03-.71.52-.75,2.34-.21,5,.17,7.38,0,.52.07.54.66.56,1.09.06.91-.09,1.82-.08,2.71,0,1.1.14,2.21.08,3.32,0,.17-.08,1.01-.12,1.09-.11.22-.53.3-.71.11l-2.23-2.29c-.16-.03-1.35,1.34-1.56,1.55Z"/>
      <path class="cls-3" d="M46.47,27.63s.14.21.15.26l.02,20.96c-1.33,2.01-2.99,3.97-4.77,5.61-.28.26-1.01.98-1.28,1.13-.65.38-.69-.48-.72-.94-.08-1.14,0-2.34,0-3.46-.04-7.78.15-15.53.08-23.32.04-.19.22-.34.41-.34,1.85.13,3.89-.15,5.72,0,.14.01.27,0,.39.1Z"/>
      <path class="cls-4" d="M37.07,58.13c-1.77,1-3.65,2.12-5.55,2.83-.37.14-.71.39-.96-.09l-.02-23.23c0-.22.19-.36.36-.47l5.7-.02c.22,0,.36.19.47.36v20.62Z"/>
      <path class="cls-5" d="M21.27,41.01l5.78-.02c.18,0,.32.13.39.28l-.02,19.8c-.16.33-.8.03-1.07-.06-.88-.31-2.05-.88-2.9-1.31-.3-.16-2.41-1.32-2.45-1.46l-.02-16.84c0-.18.13-.32.28-.39Z"/>
      <path class="cls-7" d="M18.27,56.17c-.07.04-.16.03-.24.01-.29-.06-1.37-1.07-1.66-1.35-1.66-1.54-3.15-3.24-4.51-5.05.05-1.28-.21-2.94-.04-4.18.05-.35.32-.46.64-.49,1.72-.16,3.68.13,5.42,0,.39.08.53.25.56.64.29,3.15-.23,6.74,0,9.94.02.1-.11.43-.17.47Z"/>
    </g>
  </g>
</svg>